<?xml version="1.0" standalone="no"?>
<!DOCTYPE svg PUBLIC "-//W3C//DTD SVG 20010904//EN"
 "http://www.w3.org/TR/2001/REC-SVG-20010904/DTD/svg10.dtd">
<svg version="1.0" xmlns="http://www.w3.org/2000/svg"
 width="3840.000000pt" height="3840.000000pt" viewBox="0 0 3840.000000 3840.000000"
 preserveAspectRatio="xMidYMid meet">
<metadata>
Created by potrace 1.11, written by Peter Selinger 2001-2013
</metadata>
<g transform="translate(0.000000,3840.000000) scale(0.100000,-0.100000)"
fill="#000000" stroke="none">
<path d="M22260 30540 c-25 -4 -58 -13 -73 -19 -16 -6 -59 -11 -96 -11 -40 0
-90 -8 -122 -18 -30 -11 -99 -24 -154 -31 -110 -14 -160 -27 -585 -152 -153
-45 -216 -59 -268 -59 -30 0 -86 -9 -125 -19 -83 -23 -283 -67 -342 -76 -22
-3 -91 -17 -153 -31 -113 -25 -116 -25 -355 -16 -133 6 -263 15 -288 21 -113
25 -397 45 -589 42 -201 -3 -298 -16 -375 -50 -23 -10 -118 -38 -211 -61 -93
-23 -195 -56 -226 -71 -32 -16 -69 -29 -82 -29 -43 0 -219 -42 -256 -60 -49
-25 -89 -31 -221 -36 -63 -2 -154 -6 -204 -9 -62 -4 -121 -1 -190 10 -55 9
-185 25 -290 35 -223 21 -407 57 -554 107 -122 41 -241 53 -344 34 -210 -39
-292 -69 -426 -156 -36 -23 -86 -54 -111 -68 -45 -26 -117 -91 -175 -157 -17
-19 -46 -49 -65 -66 -19 -18 -73 -76 -120 -130 -143 -164 -242 -264 -315 -319
-38 -29 -83 -67 -100 -85 -16 -18 -55 -44 -85 -60 -30 -15 -94 -48 -141 -74
-171 -92 -393 -176 -467 -176 -40 0 -84 -8 -247 -45 -124 -28 -319 -33 -777
-23 -255 6 -315 5 -355 -7 -34 -11 -100 -15 -228 -15 -116 -1 -200 -6 -237
-14 -34 -8 -82 -12 -117 -9 -41 4 -74 1 -107 -11 -26 -9 -71 -16 -100 -16 -81
0 -199 -19 -246 -40 -24 -10 -106 -28 -183 -40 -237 -36 -258 -42 -565 -145
-75 -25 -145 -45 -156 -45 -11 0 -51 -15 -90 -34 -38 -19 -112 -50 -164 -71
-113 -43 -189 -84 -250 -135 -25 -21 -73 -54 -106 -74 -34 -19 -68 -46 -77
-59 -9 -13 -62 -65 -120 -116 -57 -50 -114 -110 -126 -132 -13 -22 -44 -64
-70 -94 -26 -30 -70 -91 -97 -135 -27 -45 -66 -103 -86 -130 -21 -27 -56 -95
-78 -151 -38 -96 -39 -103 -25 -126 15 -22 21 -24 112 -22 87 1 106 5 190 39
51 21 115 43 142 49 27 6 91 29 143 51 109 48 121 52 253 75 98 17 101 17 159
-4 32 -11 70 -28 83 -36 76 -50 70 -217 -15 -380 -53 -101 -57 -105 -201 -150
-71 -23 -94 -26 -145 -20 -34 4 -100 6 -148 6 -48 -1 -147 7 -220 19 -73 11
-164 25 -203 30 -38 6 -106 19 -150 29 -184 44 -254 49 -545 41 -264 -7 -278
-8 -340 -33 -36 -14 -137 -49 -225 -77 -88 -27 -189 -63 -225 -79 -36 -16
-128 -57 -205 -91 -190 -84 -364 -171 -388 -194 -51 -48 -335 -149 -530 -188
-82 -16 -150 -22 -252 -22 -135 0 -145 1 -270 39 -118 36 -140 40 -240 39
-100 0 -117 -3 -192 -33 -45 -18 -97 -35 -116 -38 -55 -8 -147 22 -304 100
-192 96 -277 127 -354 127 -101 0 -247 -20 -337 -46 -173 -50 -274 -124 -401
-293 -120 -158 -216 -246 -328 -300 -48 -24 -99 -49 -113 -57 -121 -67 -128
-69 -265 -71 -142 -2 -285 -20 -285 -37 1 -31 87 -100 140 -111 19 -4 52 -17
74 -28 45 -24 155 -34 368 -36 120 -1 151 2 233 24 52 15 119 36 148 49 28 13
84 31 122 40 39 9 116 40 171 67 111 55 166 64 254 41 111 -28 273 -62 298
-62 63 0 313 -88 387 -136 11 -7 61 -21 110 -30 74 -14 157 -18 460 -19 204
-2 380 -5 391 -8 12 -3 73 -20 135 -37 179 -51 247 -60 444 -59 282 0 444 13
570 45 153 39 312 39 469 1 86 -21 116 -32 140 -56 41 -38 130 -94 201 -125
159 -71 409 -128 560 -129 77 0 103 4 177 31 62 23 106 32 148 32 69 0 99 -13
180 -75 71 -55 101 -70 196 -96 70 -19 96 -21 229 -16 159 6 213 15 418 73 71
20 164 42 207 48 l79 13 73 -106 c222 -323 419 -541 491 -541 7 0 39 -16 71
-35 73 -44 112 -54 245 -66 415 -36 386 -31 501 -89 58 -29 140 -78 183 -108
64 -45 88 -69 135 -141 106 -160 104 -155 96 -292 -6 -100 -11 -126 -29 -153
-26 -38 -243 -438 -298 -549 -28 -55 -43 -103 -53 -165 -7 -48 -20 -105 -28
-127 -12 -35 -12 -50 -1 -104 7 -36 11 -78 8 -95 -7 -42 31 -198 61 -249 13
-23 36 -74 50 -114 14 -40 37 -96 52 -125 15 -29 38 -84 52 -123 13 -38 45
-126 69 -195 69 -193 70 -199 89 -302 26 -148 15 -406 -22 -543 -19 -68 -29
-129 -30 -190 -1 -49 -5 -126 -9 -170 -5 -65 -2 -106 19 -215 14 -74 26 -155
26 -181 0 -26 7 -66 16 -90 8 -24 20 -73 25 -108 5 -35 22 -93 39 -130 16 -37
41 -107 55 -156 36 -126 62 -193 94 -245 48 -77 161 -301 161 -319 0 -10 17
-42 39 -72 21 -30 62 -99 91 -154 29 -55 73 -121 96 -146 30 -32 73 -109 142
-250 88 -182 101 -216 121 -315 14 -72 19 -126 15 -153 -4 -23 -8 -41 -11 -41
-2 0 -20 7 -41 16 -20 9 -68 27 -105 40 -38 13 -90 39 -116 58 -26 19 -69 40
-96 47 -57 14 -97 32 -140 65 -44 33 -129 68 -266 110 -156 47 -217 46 -300
-8 -63 -41 -138 -120 -163 -171 -38 -81 -69 -266 -72 -427 -6 -312 -15 -550
-24 -604 -14 -86 -12 -153 6 -211 10 -35 13 -68 8 -113 -5 -45 -2 -75 9 -105
8 -23 18 -71 20 -107 6 -66 43 -180 77 -235 10 -16 25 -57 33 -91 15 -65 65
-160 125 -236 58 -74 111 -180 127 -255 9 -41 14 -117 13 -193 -3 -252 -2
-262 44 -377 47 -122 79 -167 163 -235 33 -26 74 -59 92 -74 17 -14 55 -32 83
-39 91 -24 157 -72 200 -145 21 -36 44 -85 50 -110 7 -24 25 -70 41 -102 17
-33 29 -74 29 -95 0 -85 83 -364 127 -430 93 -139 108 -155 176 -196 144 -88
112 -82 397 -81 254 0 255 1 317 27 34 15 77 27 95 27 45 0 169 35 226 64 54
27 242 99 247 94 12 -12 45 -115 45 -141 0 -18 12 -59 26 -92 14 -33 32 -87
39 -120 8 -33 30 -107 50 -165 20 -58 49 -157 65 -220 17 -63 44 -142 60 -174
18 -36 30 -74 30 -99 0 -26 11 -58 31 -93 17 -30 39 -82 49 -116 10 -35 27
-85 38 -113 10 -27 23 -72 26 -98 8 -51 43 -153 75 -216 11 -20 40 -98 64
-172 53 -157 109 -288 147 -344 15 -22 53 -92 85 -155 32 -63 65 -126 75 -140
9 -14 43 -74 74 -135 32 -60 75 -128 96 -150 20 -22 56 -72 79 -112 23 -40 46
-75 52 -79 16 -10 129 -184 129 -199 0 -7 39 -57 86 -110 47 -54 96 -119 109
-144 13 -25 58 -84 100 -131 43 -47 92 -107 110 -135 18 -27 43 -59 55 -70 13
-11 65 -69 116 -130 118 -140 270 -295 356 -363 37 -30 81 -76 98 -102 17 -27
52 -62 78 -79 26 -16 68 -52 93 -78 25 -26 97 -85 160 -130 63 -45 147 -106
188 -136 41 -30 92 -61 114 -68 22 -7 61 -32 87 -56 26 -24 51 -43 55 -43 24
0 198 -89 244 -125 31 -24 95 -64 143 -90 48 -25 98 -58 110 -71 32 -35 222
-166 288 -199 30 -15 78 -44 105 -65 28 -21 71 -48 97 -59 26 -11 71 -38 100
-59 64 -48 153 -97 191 -106 15 -4 60 -22 100 -40 40 -19 92 -37 117 -41 25
-4 98 -25 162 -46 80 -26 136 -39 173 -39 31 0 72 -7 93 -16 32 -15 192 -28
292 -26 203 6 326 13 375 22 151 26 317 49 395 55 47 4 132 17 190 30 58 13
137 29 175 36 39 6 102 22 140 34 39 13 140 37 225 55 85 17 178 41 206 54 27
13 71 26 97 30 71 11 182 51 220 81 35 26 240 122 312 145 22 7 81 43 130 80
50 37 110 80 135 95 51 32 248 208 328 293 29 32 70 86 92 122 21 36 53 79 70
95 18 17 43 53 56 81 14 31 40 66 66 87 25 21 69 76 101 129 78 125 164 240
235 313 32 33 87 103 122 155 35 52 95 130 134 173 39 43 94 111 121 151 28
40 85 115 127 165 43 50 87 110 99 133 11 22 40 62 64 87 23 25 69 89 100 141
32 52 77 116 100 141 24 25 51 61 60 80 10 19 48 79 85 135 91 135 187 298
251 424 29 58 66 122 82 143 16 21 37 59 47 85 32 83 79 183 101 214 35 48
238 607 239 655 0 36 40 133 54 133 8 0 19 -7 27 -16 37 -45 234 -111 362
-121 110 -9 296 26 387 72 59 30 156 134 243 259 84 121 96 145 158 310 28 72
62 151 76 176 14 25 43 75 64 112 25 45 66 95 124 150 48 45 106 109 130 142
24 34 56 71 72 82 16 12 46 55 67 95 20 41 56 102 80 136 24 34 51 83 61 110
9 26 37 89 61 138 23 50 46 108 50 130 4 22 20 66 35 97 16 32 33 86 38 120 5
35 16 81 25 101 8 21 23 77 31 125 56 304 63 363 66 512 4 180 -15 581 -32
690 -12 76 -21 235 -22 370 0 69 3 82 45 165 77 154 92 211 85 335 -6 123 -35
210 -113 343 -44 76 -48 80 -125 117 -44 21 -113 46 -154 56 -73 17 -75 17
-186 -6 -109 -23 -116 -26 -194 -86 -69 -53 -153 -104 -169 -104 -3 0 -8 16
-12 36 -5 25 -1 47 11 72 20 44 48 196 40 221 -6 20 20 205 34 243 5 13 12 68
16 123 3 55 11 129 17 165 5 36 9 95 9 132 -1 50 9 98 38 195 21 70 44 153 50
183 7 30 24 89 38 130 14 41 31 103 38 138 7 34 25 80 39 102 15 22 40 82 57
133 17 50 47 121 66 157 19 35 48 98 63 140 15 41 58 154 95 250 37 96 73 193
80 215 31 98 59 205 67 260 6 33 18 92 28 130 10 39 26 121 35 182 14 93 15
121 5 162 -9 39 -9 62 1 105 14 63 10 90 -43 284 l-31 114 45 46 c47 49 99
124 257 371 96 149 125 206 193 376 22 55 48 114 58 130 36 59 84 254 122 490
16 97 16 374 1 510 -21 197 -117 524 -208 710 -45 93 -203 361 -265 450 -19
27 -65 83 -104 125 -38 41 -90 104 -117 140 -26 36 -61 75 -78 88 -17 12 -46
47 -65 76 -19 30 -55 69 -80 88 -24 18 -56 53 -70 78 -14 25 -51 70 -83 101
-67 65 -110 133 -159 251 -19 46 -44 103 -55 128 -12 24 -23 68 -26 97 -6 59
20 343 44 474 11 66 13 119 8 220 -3 74 -8 180 -10 235 -4 122 -30 281 -56
347 -11 26 -19 62 -19 80 0 18 -7 57 -15 87 -8 30 -28 114 -45 185 -16 72 -44
171 -61 220 -17 50 -41 128 -53 175 -13 47 -31 108 -41 135 -9 28 -32 109 -50
180 -71 285 -132 487 -194 649 -17 44 -35 102 -41 130 -12 59 -109 265 -144
306 -13 16 -49 75 -80 132 -52 95 -73 120 -231 280 -188 191 -224 217 -397
287 -101 41 -277 86 -373 96 -33 3 -105 19 -161 35 -55 16 -136 33 -180 39
-43 5 -97 16 -119 24 -22 8 -67 18 -100 22 -32 4 -80 15 -105 25 -25 10 -72
23 -105 30 -33 7 -80 22 -105 35 -25 12 -63 28 -85 35 -22 7 -106 39 -186 71
-80 31 -162 60 -182 64 -20 4 -56 19 -79 34 -57 35 -279 145 -344 169 -28 10
-71 33 -95 49 -25 17 -67 38 -94 46 -28 8 -84 31 -125 51 -41 20 -81 36 -89
36 -8 0 -62 13 -120 29 -200 55 -246 64 -351 73 -167 13 -351 17 -400 8z
m-1893 -3229 c-5 -65 -67 -208 -131 -304 -41 -62 -311 -360 -359 -396 -18 -14
-61 -52 -97 -85 -157 -146 -244 -205 -512 -345 -42 -22 -104 -58 -137 -80
-106 -68 -356 -161 -435 -161 -17 0 -55 -11 -84 -25 -37 -17 -71 -25 -108 -25
-29 0 -85 -5 -123 -12 -74 -13 -136 -3 -136 21 0 14 193 117 305 164 355 146
465 194 525 227 39 20 94 45 123 55 63 20 120 64 100 76 -7 5 -25 9 -39 9 -14
0 -61 9 -105 21 -43 11 -126 28 -184 37 -144 23 -436 19 -596 -8 -64 -11 -136
-20 -160 -20 -25 0 -71 -11 -104 -25 -33 -14 -79 -25 -102 -25 -24 0 -63 -9
-87 -20 -24 -11 -72 -27 -107 -35 -36 -8 -81 -23 -102 -34 -20 -10 -59 -22
-87 -26 -27 -4 -77 -22 -111 -41 -33 -19 -72 -34 -86 -34 -31 0 -268 -94 -320
-126 -20 -13 -58 -29 -85 -35 -26 -7 -81 -27 -122 -46 -124 -56 -280 -110
-472 -163 -101 -28 -199 -60 -218 -71 -18 -11 -67 -24 -107 -29 -41 -5 -98
-16 -127 -24 -28 -8 -106 -18 -172 -22 -66 -4 -137 -13 -159 -20 -58 -21 -318
-18 -521 6 -178 20 -299 48 -433 100 -77 30 -169 86 -159 97 6 5 173 -11 282
-27 116 -18 351 -32 415 -26 36 3 157 9 270 14 113 4 211 12 219 16 8 5 53 13
101 17 48 4 109 17 136 27 27 11 90 28 139 37 50 10 115 26 145 36 30 10 78
23 105 29 28 6 108 36 179 66 72 31 211 85 310 119 100 35 201 74 226 88 25
14 63 29 85 32 22 4 94 32 161 61 67 30 130 54 142 54 31 0 182 49 217 70 17
10 59 26 95 35 36 9 83 22 105 30 105 36 267 75 314 75 29 0 78 7 108 16 34
10 68 13 90 9 19 -3 74 -1 122 6 76 11 103 10 241 -10 85 -11 177 -21 203 -21
31 0 65 -9 95 -24 26 -13 98 -40 161 -60 63 -20 134 -48 158 -62 38 -22 46
-24 56 -11 7 7 30 24 52 37 22 13 63 42 90 65 28 23 79 62 115 87 76 55 370
350 455 458 72 92 215 238 234 239 11 1 13 -12 8 -58z m-4442 -296 c83 -8 170
-15 195 -15 25 0 115 -18 201 -39 153 -38 249 -77 299 -121 l25 -21 -40 6
c-22 3 -101 15 -175 26 -118 18 -160 20 -330 14 -107 -4 -243 -8 -301 -10 -76
-2 -116 -8 -139 -20 -18 -9 -69 -21 -114 -25 -45 -4 -101 -15 -125 -24 -24 -9
-61 -16 -83 -16 -59 0 -184 -35 -274 -76 -43 -20 -102 -44 -130 -54 -28 -10
-97 -36 -155 -58 -296 -116 -340 -132 -362 -132 -13 0 -73 -25 -134 -55 -61
-30 -138 -61 -171 -69 -32 -9 -85 -27 -116 -41 -31 -14 -65 -25 -75 -25 -25 0
-171 -45 -228 -70 -26 -12 -73 -27 -103 -35 -30 -7 -103 -27 -161 -44 -58 -17
-130 -33 -160 -35 -30 -2 -71 -11 -91 -20 -22 -9 -65 -16 -105 -16 -38 0 -84
-5 -103 -11 -98 -30 -522 -41 -745 -20 -66 7 -160 16 -210 20 -144 13 -425 94
-425 121 0 12 283 21 320 10 19 -6 103 -11 185 -11 83 0 193 -1 245 -1 134 -2
506 38 591 62 19 6 61 10 95 10 35 0 86 9 119 20 32 11 75 20 96 20 20 0 57 8
81 19 24 10 79 26 123 36 180 39 243 57 295 84 30 16 76 31 103 35 59 9 166
45 234 80 29 14 59 26 67 26 8 0 54 20 100 45 47 25 91 45 97 45 6 0 50 15 98
34 47 18 122 45 167 59 44 14 135 48 202 76 67 28 131 51 142 51 11 0 43 9 72
21 114 44 193 69 223 69 17 0 67 11 111 24 83 24 275 56 399 64 11 1 88 -5
170 -13z m5587 -195 c-9 -77 -186 -334 -272 -396 -26 -18 -59 -51 -74 -73 -15
-21 -51 -55 -79 -74 -29 -19 -77 -59 -107 -88 -54 -53 -93 -81 -235 -170 -38
-24 -93 -65 -121 -90 -29 -26 -69 -52 -90 -59 -46 -16 -154 -73 -206 -111 -21
-15 -68 -39 -105 -55 -38 -16 -88 -40 -113 -55 -45 -27 -202 -75 -295 -90 -71
-11 -289 -11 -319 1 -17 6 -24 14 -20 25 8 20 76 58 142 80 29 9 95 39 146 66
52 27 118 57 147 65 30 9 79 31 109 49 74 44 310 175 440 245 118 63 185 104
195 120 4 6 41 35 84 65 43 30 113 90 157 133 43 44 95 87 114 97 19 10 76 55
125 100 50 46 113 96 140 112 28 17 88 53 134 82 47 28 90 50 95 48 6 -3 10
-15 8 -27z m522 -707 c13 -33 -7 -104 -47 -166 -22 -34 -48 -80 -57 -102 -36
-84 -105 -181 -187 -264 -47 -47 -103 -109 -124 -138 -21 -28 -65 -72 -97 -96
-32 -25 -64 -53 -72 -62 -32 -39 -273 -217 -311 -230 -23 -8 -55 -27 -73 -42
-17 -16 -43 -35 -56 -45 -24 -16 -23 -16 45 -15 85 2 136 -19 214 -86 75 -65
106 -77 193 -77 97 0 145 15 193 59 22 20 72 57 110 83 39 25 80 60 93 77 12
17 48 50 80 73 56 42 162 136 276 246 32 31 92 100 134 152 42 52 97 118 122
145 25 28 67 83 93 123 27 41 78 106 115 145 37 40 78 88 90 108 22 36 87 89
109 89 57 0 -19 -228 -119 -360 -23 -30 -72 -100 -109 -155 -37 -55 -86 -120
-109 -145 -23 -25 -66 -76 -95 -115 -29 -38 -67 -83 -85 -100 -18 -16 -52 -56
-77 -87 -24 -32 -68 -75 -97 -95 -64 -46 -205 -156 -255 -200 -33 -29 -34 -32
-16 -39 11 -4 58 -22 105 -39 105 -41 174 -55 270 -57 66 -1 81 3 130 29 30
17 77 34 103 38 45 6 195 63 281 107 64 33 429 382 541 518 21 25 56 59 80 75
23 17 55 48 71 69 34 46 99 96 126 96 25 0 23 -32 -7 -127 -18 -58 -41 -101
-91 -168 -36 -49 -81 -114 -100 -142 -18 -29 -83 -103 -144 -163 -106 -107
-111 -120 -30 -80 19 9 55 20 80 24 76 12 262 147 399 289 25 27 76 79 112
115 77 77 136 155 172 228 14 27 33 57 43 65 10 8 41 46 70 85 56 75 113 120
140 110 13 -5 16 -19 12 -74 -3 -56 -12 -84 -55 -172 -28 -58 -72 -134 -98
-169 -26 -35 -54 -80 -62 -100 -16 -37 -43 -71 -198 -240 -49 -54 -105 -117
-124 -140 -19 -24 -47 -48 -63 -53 -16 -6 -27 -12 -25 -15 3 -2 57 12 121 32
84 27 140 52 203 92 49 31 113 69 143 86 79 43 214 151 283 227 119 131 227
232 243 228 29 -5 24 -86 -11 -198 -28 -87 -35 -100 -100 -168 -38 -41 -97
-94 -130 -117 -33 -24 -76 -60 -94 -79 -19 -20 -38 -36 -42 -36 -16 0 -62 -21
-57 -26 3 -2 36 7 74 22 38 14 80 28 94 29 14 2 56 16 95 32 53 21 88 45 145
98 155 146 260 235 286 241 61 16 69 -72 18 -187 -23 -51 -46 -77 -137 -159
-101 -91 -221 -170 -260 -170 -8 0 -41 -14 -73 -31 -41 -22 -78 -33 -121 -36
-37 -4 -63 -10 -63 -17 0 -30 31 -119 63 -181 62 -124 103 -166 218 -226 150
-79 171 -105 294 -374 23 -51 55 -99 88 -135 175 -183 223 -221 364 -284 123
-55 246 -91 376 -111 211 -31 271 -109 324 -420 14 -82 29 -170 34 -195 13
-71 10 -262 -7 -420 -8 -80 -17 -206 -20 -280 -3 -74 -14 -184 -24 -245 -11
-60 -26 -166 -34 -235 -14 -123 -30 -212 -66 -380 -11 -47 -22 -121 -25 -165
-4 -44 -18 -134 -31 -200 -35 -168 -42 -212 -54 -360 -6 -71 -15 -146 -21
-165 -18 -65 -39 -382 -34 -515 3 -71 7 -213 10 -313 3 -101 7 -188 10 -192 3
-5 10 -60 16 -122 5 -62 15 -140 20 -173 14 -76 65 -236 89 -278 23 -39 96
-266 105 -327 4 -25 19 -67 33 -95 28 -55 61 -174 62 -220 0 -16 10 -55 21
-85 33 -89 59 -201 59 -256 0 -30 10 -75 24 -110 25 -62 45 -206 47 -329 2
-112 -19 -465 -30 -520 -6 -27 -15 -124 -22 -215 -7 -112 -17 -184 -31 -225
-11 -33 -24 -87 -29 -120 -6 -33 -20 -89 -33 -125 -13 -36 -31 -108 -41 -160
-9 -52 -26 -117 -38 -145 -11 -27 -21 -70 -22 -95 -3 -54 -22 -127 -40 -156
-21 -32 -53 -150 -65 -239 -7 -44 -23 -122 -36 -174 -13 -51 -24 -105 -24
-120 0 -42 -73 -180 -133 -251 -35 -42 -98 -96 -171 -148 -64 -46 -116 -87
-116 -92 0 -5 -26 -28 -57 -51 -32 -24 -82 -64 -112 -91 -29 -27 -71 -58 -92
-68 -21 -11 -53 -38 -70 -60 -18 -22 -53 -54 -78 -70 -70 -44 -261 -236 -320
-320 -29 -41 -67 -87 -85 -102 -26 -21 -45 -56 -84 -155 -63 -161 -70 -191
-46 -200 20 -7 100 74 224 227 67 83 174 186 255 245 22 16 65 50 95 76 30 25
81 63 113 84 32 21 85 65 119 98 33 34 80 73 103 88 23 15 55 43 71 63 16 20
72 67 124 104 52 37 112 86 134 110 49 51 61 53 42 7 -8 -19 -22 -76 -31 -126
-8 -50 -19 -99 -25 -108 -5 -10 -16 -64 -25 -122 -20 -136 -43 -240 -66 -311
-10 -32 -19 -76 -19 -98 0 -22 -7 -57 -16 -78 -31 -73 -64 -203 -64 -253 0
-27 -6 -62 -14 -78 -20 -38 -51 -164 -75 -302 -11 -65 -29 -136 -42 -160 -12
-24 -43 -129 -69 -234 -30 -120 -62 -223 -88 -280 -22 -49 -57 -139 -77 -200
-20 -60 -47 -128 -60 -150 -13 -22 -30 -65 -39 -96 -9 -31 -34 -80 -56 -109
-22 -29 -43 -69 -46 -89 -10 -52 -71 -170 -109 -211 -18 -19 -68 -102 -110
-185 -43 -82 -97 -175 -120 -205 -23 -30 -50 -71 -60 -90 -28 -55 -133 -197
-195 -264 -32 -34 -68 -81 -80 -106 -13 -25 -47 -72 -77 -105 -30 -33 -94
-118 -143 -190 -49 -71 -104 -142 -124 -157 -19 -16 -63 -70 -97 -120 -34 -51
-90 -127 -124 -168 -34 -41 -87 -107 -116 -146 -30 -39 -86 -109 -125 -155
-40 -47 -89 -112 -110 -145 -20 -32 -58 -82 -83 -110 -25 -28 -76 -93 -113
-145 -155 -218 -258 -338 -317 -369 -21 -10 -57 -40 -79 -65 -45 -51 -164
-135 -192 -135 -24 0 -164 -75 -211 -112 -22 -18 -77 -41 -147 -63 -62 -19
-140 -48 -174 -65 -35 -16 -77 -30 -95 -30 -18 0 -67 -11 -110 -24 -43 -13
-100 -27 -128 -31 -27 -3 -73 -17 -102 -31 -37 -17 -69 -24 -112 -24 -37 0
-80 -8 -111 -20 -31 -12 -74 -20 -110 -20 -34 0 -82 -8 -112 -19 -70 -26 -185
-42 -240 -35 -30 4 -83 -2 -163 -20 -89 -19 -154 -26 -250 -28 -202 -3 -447
10 -486 26 -19 8 -85 24 -146 36 -87 16 -139 34 -226 75 -63 29 -133 58 -156
65 -23 6 -59 26 -79 44 -20 19 -73 55 -117 81 -44 26 -87 53 -95 60 -8 7 -41
26 -72 43 -31 16 -79 48 -105 70 -26 22 -93 63 -148 92 -55 29 -118 70 -140
91 -22 21 -65 49 -96 62 -31 14 -74 40 -95 59 -50 44 -92 69 -228 135 -139 68
-186 98 -311 196 -55 44 -121 90 -146 102 -26 14 -57 41 -74 65 -16 23 -49 53
-74 68 -25 14 -93 73 -151 132 -58 58 -121 119 -140 135 -57 49 -258 272 -360
400 -52 66 -111 135 -131 155 -20 19 -56 62 -79 95 -24 33 -57 76 -75 95 -17
19 -45 58 -62 85 -17 28 -69 101 -116 164 -48 63 -103 147 -123 185 -20 39
-58 94 -84 121 -26 28 -53 68 -60 90 -7 22 -38 77 -69 123 -109 162 -148 227
-161 267 -7 22 -27 67 -45 100 -19 33 -39 80 -45 105 -6 25 -27 72 -45 105
-31 56 -60 137 -100 280 -10 33 -33 94 -52 135 -54 118 -111 279 -122 346 -5
34 -18 79 -29 100 -22 43 -54 149 -71 232 -6 30 -22 73 -36 96 -14 24 -48 125
-75 224 -28 100 -59 201 -70 226 -10 25 -23 69 -29 98 -5 29 -21 86 -35 127
-15 41 -26 87 -26 101 0 27 -31 127 -51 167 -7 13 -9 40 -6 68 5 32 1 60 -12
98 -11 28 -22 84 -25 122 -3 39 -17 115 -31 170 -14 55 -32 154 -40 220 -8 66
-23 143 -33 170 -11 28 -27 93 -36 145 -10 52 -33 159 -53 237 -19 77 -33 147
-31 154 2 7 44 -68 92 -167 107 -217 152 -284 227 -335 31 -21 71 -56 89 -79
17 -22 58 -56 91 -75 32 -18 78 -54 101 -78 24 -24 87 -69 140 -101 54 -31
112 -74 130 -95 36 -42 138 -129 198 -170 60 -40 252 -230 290 -286 18 -27 50
-68 70 -90 20 -23 53 -74 73 -115 19 -42 58 -105 85 -142 27 -37 53 -80 56
-95 11 -48 69 -186 92 -223 13 -19 28 -64 33 -98 6 -35 21 -83 34 -105 32 -54
70 -175 97 -307 13 -59 37 -136 56 -175 18 -38 36 -92 39 -120 8 -56 82 -321
121 -430 14 -38 34 -104 44 -145 11 -41 28 -99 40 -128 11 -29 20 -67 20 -85
1 -17 8 -50 17 -72 33 -86 73 -210 73 -230 0 -12 9 -55 20 -96 11 -41 27 -107
35 -147 8 -40 26 -92 39 -115 14 -23 28 -64 31 -92 10 -72 39 -175 63 -222 12
-22 35 -96 52 -163 17 -67 40 -140 51 -162 11 -21 27 -70 35 -108 17 -75 50
-135 74 -135 24 0 24 81 0 212 -12 65 -28 169 -35 231 -8 62 -24 134 -35 159
-13 30 -20 67 -20 107 0 45 -6 73 -24 106 -13 25 -29 75 -35 111 -6 36 -18 88
-26 115 -8 27 -15 69 -15 93 0 47 -18 126 -55 241 -13 41 -38 143 -56 225 -18
83 -46 188 -61 235 -51 151 -86 264 -101 325 -72 292 -112 431 -142 495 -19
42 -35 84 -35 94 0 9 -21 79 -46 154 -25 75 -50 164 -55 198 -6 44 -25 93 -68
175 -32 63 -64 135 -70 162 -7 29 -39 88 -80 150 -38 57 -76 120 -85 141 -8
20 -39 65 -69 99 -29 34 -72 88 -96 120 -49 66 -197 217 -238 244 -67 41 -143
108 -167 143 -14 22 -47 51 -73 66 -27 15 -73 49 -103 74 -30 26 -113 86 -185
133 -71 47 -161 111 -200 142 -38 31 -82 63 -96 70 -31 17 -79 71 -79 89 0 7
-18 34 -40 59 -71 80 -120 150 -137 197 -9 25 -43 92 -74 150 -32 58 -61 123
-65 145 -8 46 -103 305 -134 366 -28 55 -53 50 -60 -11 l-5 -45 -18 63 c-10
35 -28 85 -41 110 -13 26 -28 69 -35 96 -7 27 -24 71 -38 100 -37 73 -62 150
-78 239 -8 43 -24 94 -36 113 -14 23 -23 60 -28 117 -4 45 -13 93 -20 105 -7
13 -19 57 -27 99 -8 41 -23 95 -33 118 -10 23 -22 67 -26 96 -9 71 -35 176
-80 324 -20 66 -54 187 -76 269 -22 83 -50 168 -63 190 -17 31 -28 74 -40 171
-9 72 -21 153 -26 180 -5 28 -12 113 -15 190 -4 77 -11 161 -16 186 -6 25 -11
104 -13 175 -2 95 -7 140 -20 169 -23 53 -25 263 -3 350 8 33 18 103 21 155 3
52 13 120 22 150 9 30 22 80 30 110 31 122 49 170 104 290 31 69 65 150 75
180 10 29 35 80 55 111 21 32 42 78 49 103 6 27 28 64 52 93 23 26 48 63 56
83 37 91 138 285 195 375 36 57 80 145 102 204 22 57 65 154 96 216 32 61 60
129 64 149 4 20 31 92 61 160 29 68 58 148 64 179 5 31 21 78 35 105 14 28 35
94 46 148 12 55 31 122 42 149 48 117 163 602 183 775 8 69 24 150 35 180 10
30 20 73 20 95 1 38 31 159 63 255 8 25 25 86 36 135 12 50 46 164 77 255 30
91 64 195 74 231 10 37 35 99 55 139 20 39 51 109 69 153 18 45 58 131 89 191
67 129 82 191 73 304 -6 77 -5 83 12 78 10 -3 42 -12 72 -20 70 -18 285 -101
327 -126 33 -19 249 -92 313 -105 19 -3 83 -22 142 -41 59 -19 119 -34 133
-34 15 0 79 -18 143 -39 64 -21 151 -45 192 -52 41 -7 93 -21 114 -32 22 -10
67 -21 100 -24 34 -3 84 -13 112 -23 28 -10 100 -26 160 -35 60 -8 127 -20
149 -26 22 -6 81 -14 130 -19 50 -5 106 -14 125 -20 19 -7 73 -13 120 -15 47
-2 159 -8 250 -13 226 -15 409 -6 535 25 186 46 240 54 395 58 85 2 189 9 230
15 41 7 111 15 155 19 61 4 91 12 125 32 53 31 349 150 435 174 77 23 309 138
418 209 46 31 106 65 133 76 27 12 72 43 99 69 28 27 95 82 150 123 55 42 113
90 130 107 16 18 51 45 76 62 26 17 67 56 90 87 24 31 84 98 133 148 50 50
103 112 118 137 15 25 46 60 69 77 23 16 58 48 76 70 38 44 48 48 57 23z
m-7802 -961 c20 -44 33 -93 38 -147 5 -44 14 -111 21 -150 16 -87 -1 -301 -32
-402 -27 -89 -141 -342 -177 -396 -16 -23 -39 -62 -52 -87 -12 -25 -37 -66
-56 -92 -18 -26 -44 -68 -57 -95 -14 -26 -35 -57 -47 -68 -50 -45 -161 -222
-273 -435 -98 -186 -120 -236 -127 -286 -4 -33 -17 -83 -29 -110 -12 -27 -26
-78 -30 -114 -5 -36 -15 -81 -24 -101 -27 -65 -39 -142 -46 -290 -5 -113 -11
-153 -24 -173 -10 -14 -22 -26 -28 -26 -21 0 -48 85 -48 151 1 35 -4 84 -10
109 -13 57 -14 175 -1 220 6 19 13 82 16 140 9 165 105 472 175 560 15 20 39
63 54 95 14 33 39 74 54 90 16 17 42 57 59 90 16 33 52 89 78 124 27 34 68 88
92 120 24 31 52 76 63 100 10 24 34 60 53 81 39 43 106 154 106 176 0 8 13 41
30 74 16 32 32 78 36 102 3 24 19 85 35 136 16 51 29 102 29 115 0 12 9 54 21
92 16 56 22 108 26 260 7 240 19 262 75 137z m11282 32 c11 -28 6 -80 -9 -118
-22 -53 -98 -167 -131 -197 -73 -67 -179 -139 -226 -155 -29 -9 -64 -25 -77
-35 -13 -11 -36 -19 -51 -19 -15 0 -53 -11 -84 -25 -103 -45 -316 -30 -316 23
0 23 16 37 106 90 44 27 92 46 125 51 80 13 163 48 210 86 22 19 58 40 80 47
29 8 59 31 106 82 131 142 249 217 267 170z m413 -549 c10 -26 -27 -103 -63
-133 -39 -32 -145 -88 -249 -131 -79 -32 -181 -45 -340 -41 -84 1 -117 7 -209
38 -134 43 -188 83 -169 125 19 42 77 52 198 36 57 -8 171 -13 263 -12 l164 2
107 50 c59 28 118 51 131 52 14 0 41 7 60 14 49 19 99 19 107 0z m-597 -612
c40 -17 139 -31 287 -40 84 -5 105 -3 124 11 13 9 43 16 69 16 25 0 93 10 152
21 59 12 114 19 122 16 23 -9 20 -55 -6 -94 -29 -42 -179 -116 -293 -145 -72
-18 -90 -19 -175 -9 -52 6 -122 13 -155 15 -132 8 -231 44 -337 121 -63 46
-85 79 -67 101 11 14 29 15 129 9 64 -4 130 -14 150 -22z m-10652 -496 c38
-45 62 -276 42 -396 -24 -141 -115 -373 -177 -449 -21 -26 -47 -60 -58 -77
-10 -16 -49 -65 -87 -108 -37 -42 -68 -81 -68 -87 0 -5 -26 -27 -57 -49 -165
-113 -522 -543 -543 -652 -5 -27 -23 -75 -40 -108 -16 -33 -30 -74 -30 -91 0
-17 -9 -49 -20 -70 -29 -57 -60 -195 -60 -270 0 -87 -17 -266 -36 -370 -9 -52
-12 -104 -8 -133 5 -32 2 -67 -9 -105 -9 -31 -19 -78 -22 -104 -4 -27 -10 -48
-15 -48 -5 0 -19 19 -31 42 -16 31 -24 72 -30 157 -5 64 -16 143 -23 176 -24
104 -8 492 24 580 9 28 21 77 25 110 3 33 12 69 20 80 7 11 22 57 33 101 25
98 63 176 147 301 35 51 76 116 91 142 14 27 45 63 68 79 22 17 104 97 181
177 77 81 200 209 274 284 135 136 189 207 225 291 10 25 32 74 47 109 19 40
34 101 44 170 17 117 66 331 76 331 4 0 11 -6 17 -13z m12019 -1187 c31 -18
74 -79 158 -219 37 -63 39 -69 53 -220 16 -175 16 -186 10 -326 -6 -122 -31
-236 -82 -384 -14 -40 -40 -126 -56 -190 -17 -64 -46 -165 -64 -226 -19 -60
-39 -137 -46 -170 -29 -151 -40 -193 -54 -228 -29 -68 -47 -328 -40 -571 7
-210 6 -218 -12 -214 -28 5 -111 175 -134 272 -38 167 -47 258 -30 328 12 51
48 263 61 368 6 41 23 104 38 140 16 36 41 121 56 190 15 69 34 138 43 155 28
55 70 194 77 252 4 32 15 90 25 128 27 100 40 224 45 414 3 124 0 175 -11 206
-7 23 -20 76 -28 118 -8 41 -23 93 -34 114 -43 85 -37 101 25 63z m-13857
-4580 c69 -32 152 -69 185 -83 69 -29 298 -141 365 -180 25 -14 65 -28 90 -32
25 -4 73 -22 107 -41 34 -19 70 -34 80 -34 11 0 48 -25 84 -56 35 -30 91 -73
124 -95 147 -96 198 -133 317 -233 l127 -105 16 -75 c9 -41 27 -107 40 -148
13 -40 22 -74 21 -75 -1 -2 -24 6 -52 16 -27 11 -72 22 -99 25 -124 16 -188
31 -297 67 -65 21 -124 39 -131 39 -7 0 -36 14 -63 31 -160 103 -214 140 -229
161 -8 13 -48 73 -88 134 -66 102 -112 165 -184 253 -15 18 -45 45 -68 59 -22
14 -62 47 -90 73 -80 77 -317 164 -364 135 -30 -19 9 -91 68 -124 21 -12 92
-74 157 -137 l117 -115 2 -132 c1 -73 5 -198 10 -278 7 -140 -8 -365 -34 -507
-5 -26 -7 -62 -4 -81 3 -18 0 -57 -6 -85 -11 -45 -10 -68 8 -169 26 -144 50
-212 96 -265 19 -23 35 -46 35 -51 0 -11 104 -138 169 -205 57 -60 269 -208
356 -248 71 -34 102 -35 96 -4 -5 32 -98 155 -165 220 -106 103 -219 242 -270
333 -27 48 -65 114 -84 146 -44 74 -53 161 -28 280 9 43 16 104 16 135 0 31 4
72 9 91 11 47 -5 404 -22 510 -8 47 -22 101 -32 120 -15 29 -15 33 -2 22 8 -7
39 -55 67 -106 98 -177 152 -227 380 -348 90 -48 155 -66 343 -93 142 -20 198
-19 292 5 96 25 105 25 105 1 0 -10 12 -45 26 -77 36 -81 69 -177 88 -253 9
-35 38 -117 66 -181 52 -124 80 -220 104 -362 9 -49 24 -105 34 -125 11 -21
36 -112 56 -203 21 -91 48 -203 61 -250 64 -231 139 -531 145 -580 3 -30 23
-99 43 -152 20 -53 37 -104 37 -112 0 -17 -46 -56 -66 -56 -7 0 -36 -20 -66
-45 -34 -30 -72 -51 -108 -62 -30 -8 -99 -38 -153 -65 -80 -40 -120 -53 -210
-69 -62 -10 -141 -28 -177 -39 -92 -27 -314 -45 -371 -30 -87 24 -130 77 -143
177 -4 29 -18 82 -31 118 -14 36 -25 83 -25 105 0 22 -8 64 -19 93 -10 28 -39
110 -65 180 -53 148 -98 222 -167 272 -27 20 -58 50 -70 67 -28 39 -121 99
-200 128 -72 27 -118 69 -156 143 -26 51 -27 56 -29 262 -3 213 -9 269 -44
362 -33 90 -121 256 -165 313 -51 66 -100 160 -109 214 -4 21 -18 62 -31 92
-44 99 -82 350 -71 477 13 168 27 477 30 683 3 184 7 228 21 258 22 45 27 44
195 -34z m14636 -635 c25 -39 44 -131 44 -221 0 -77 -2 -83 -34 -125 -55 -70
-77 -139 -87 -273 -5 -65 -6 -123 -2 -129 8 -13 22 -202 28 -372 3 -77 9 -187
15 -245 15 -147 6 -510 -14 -575 -9 -27 -16 -72 -16 -99 0 -65 -44 -276 -81
-390 -16 -50 -57 -144 -89 -208 -33 -64 -69 -141 -80 -170 -12 -29 -40 -82
-64 -118 -24 -36 -55 -85 -69 -110 -14 -25 -45 -68 -70 -97 -25 -29 -54 -67
-65 -86 -12 -18 -41 -48 -66 -65 -35 -25 -97 -91 -123 -131 -1 -2 -24 16 -51
40 -29 26 -104 71 -183 111 -207 103 -226 110 -256 104 -42 -9 -56 5 -48 46 7
37 19 59 110 200 81 125 103 196 101 318 -1 88 -4 101 -38 173 -45 94 -114
185 -177 235 -144 114 -140 110 -134 166 9 88 51 330 63 362 11 31 12 31 49
22 33 -8 50 -5 143 32 58 22 148 68 199 100 52 32 119 72 150 89 31 17 70 48
87 69 17 22 51 55 74 74 l43 35 1 -61 c1 -33 7 -133 14 -221 16 -218 16 -261
-4 -400 -10 -66 -20 -145 -22 -175 -7 -86 -112 -424 -191 -618 -60 -149 -70
-205 -38 -210 36 -5 104 49 147 118 23 36 53 81 69 100 26 34 69 124 145 305
21 51 34 97 34 126 0 25 8 70 18 100 20 57 54 304 55 398 1 31 -5 142 -12 246
-14 198 -10 503 9 670 5 50 15 137 21 194 9 84 18 117 43 165 17 34 40 84 50
111 23 60 38 83 134 200 56 67 70 91 58 93 -23 5 -79 -32 -118 -77 -18 -20
-50 -50 -71 -66 -21 -16 -48 -47 -59 -69 -11 -23 -50 -84 -86 -136 -91 -132
-159 -285 -172 -386 -19 -147 -88 -249 -260 -379 -114 -86 -184 -127 -261
-153 -65 -23 -195 -87 -204 -102 -11 -18 -26 -11 -16 8 5 10 19 55 30 100 11
46 32 111 47 145 24 58 97 249 150 396 13 35 34 80 48 100 14 20 41 82 60 137
18 54 60 151 94 214 33 63 66 136 73 162 l11 48 40 -34 c73 -63 188 -72 286
-22 27 14 70 30 95 36 25 7 66 29 93 52 27 22 68 49 92 59 23 10 63 34 89 54
36 28 55 35 89 35 36 0 47 -5 60 -25z m-1423 -2302 c80 -108 91 -130 116 -228
21 -78 20 -116 -4 -145 -20 -24 -161 -329 -181 -390 -10 -30 -18 -80 -18 -112
-1 -48 3 -61 30 -95 17 -21 42 -43 55 -49 75 -35 100 -43 159 -49 43 -4 78
-15 105 -32 22 -14 92 -54 155 -88 63 -35 120 -68 127 -72 8 -6 -13 -59 -73
-183 -46 -96 -84 -184 -84 -195 0 -11 -10 -36 -23 -56 -12 -20 -31 -50 -42
-68 -99 -161 -97 -160 -262 -160 l-124 1 -80 40 c-87 43 -117 77 -145 162 -13
37 -15 64 -9 110 4 34 6 81 5 106 -2 25 -3 59 -2 75 1 17 3 107 6 200 6 274
20 445 40 490 24 53 56 172 56 210 0 17 9 63 20 103 11 39 20 93 20 120 0 27
6 71 14 98 8 27 20 78 26 114 11 64 40 180 45 180 2 0 32 -39 68 -87z"/>
<path d="M17825 20879 c-16 -5 -64 -11 -105 -15 -460 -36 -679 -61 -805 -89
-33 -8 -82 -17 -110 -20 -27 -3 -68 -12 -90 -20 -22 -7 -78 -20 -126 -29 -165
-30 -316 -82 -326 -112 -5 -15 161 -26 207 -14 19 5 89 14 155 20 66 6 163 15
215 21 155 16 420 30 440 24 11 -3 37 -1 59 5 43 11 160 16 681 25 480 9 931
-12 1245 -59 261 -39 328 -47 460 -56 77 -6 187 -15 245 -21 209 -21 776 -14
965 12 44 6 123 13 175 14 52 2 118 10 145 19 32 10 66 14 95 10 26 -3 83 1
130 9 47 9 135 21 195 27 61 6 129 15 153 20 23 6 79 10 125 10 45 0 100 5
122 10 48 11 420 16 657 8 219 -7 234 2 90 57 -40 15 -101 31 -135 36 -34 5
-89 15 -122 24 -104 26 -254 39 -430 37 -308 -4 -709 -23 -778 -37 -38 -8
-125 -19 -195 -25 -70 -6 -174 -15 -232 -21 -221 -23 -834 -16 -1125 13 -60 6
-137 11 -170 13 -60 2 -209 24 -298 44 -27 6 -52 9 -57 6 -5 -3 -75 3 -155 15
-79 11 -180 20 -222 20 -43 0 -94 5 -113 11 -43 13 -921 20 -965 8z"/>
<path d="M22615 18850 c-11 -5 -45 -9 -75 -9 -50 -1 -99 -8 -395 -56 -108 -18
-233 -47 -305 -71 -25 -9 -76 -25 -115 -35 -113 -33 -164 -57 -290 -141 -113
-76 -123 -85 -177 -167 -31 -47 -61 -97 -67 -111 -16 -37 -28 -172 -19 -207 9
-35 72 -83 109 -83 42 0 235 37 301 58 35 11 99 28 143 37 44 9 123 28 175 41
117 30 203 49 295 64 66 10 141 29 400 99 61 16 139 32 175 36 36 4 97 15 135
25 109 29 381 30 545 2 174 -30 263 -50 350 -77 41 -13 109 -29 150 -34 41 -6
104 -18 140 -27 56 -14 70 -14 105 -2 37 12 40 16 39 49 -1 47 -74 150 -144
204 -28 22 -74 59 -101 82 -27 24 -69 52 -92 64 -23 12 -54 30 -68 40 -15 10
-64 32 -110 49 -46 17 -100 39 -119 49 -19 11 -53 23 -75 27 -22 4 -59 15 -83
26 -24 10 -57 18 -73 18 -16 0 -55 9 -87 20 -41 15 -102 23 -222 30 -200 12
-418 12 -445 0z"/>
<path d="M17060 18750 c-149 -8 -267 -34 -303 -68 -12 -11 -42 -29 -67 -40
-25 -11 -52 -27 -60 -37 -17 -21 -125 -95 -138 -95 -6 0 -32 -15 -59 -33 -27
-18 -88 -55 -137 -82 -48 -27 -114 -71 -146 -97 -32 -25 -72 -54 -88 -62 -16
-8 -42 -30 -58 -48 -16 -18 -66 -63 -111 -100 -103 -86 -135 -123 -152 -176
-13 -38 -13 -45 1 -59 14 -14 29 -14 135 -3 65 6 136 19 158 27 22 8 73 24
114 35 41 10 86 25 100 32 14 8 67 24 116 36 50 12 106 29 125 37 19 8 76 25
125 38 50 13 128 39 175 58 47 20 121 42 165 51 44 9 106 26 138 36 31 11 66
20 78 20 11 0 57 9 101 21 128 32 300 61 333 55 17 -3 102 -12 191 -20 89 -9
181 -22 205 -31 60 -22 83 -29 239 -70 74 -20 164 -49 200 -64 36 -16 126 -43
200 -61 131 -31 139 -31 233 -21 113 13 150 26 217 78 71 55 71 67 -3 138 -48
47 -97 79 -217 142 -85 44 -166 84 -180 88 -14 4 -70 30 -126 56 -56 27 -111
49 -124 49 -12 0 -63 15 -114 34 -50 19 -113 37 -141 41 -27 4 -88 18 -134 32
-59 18 -98 24 -130 20 -28 -3 -75 2 -121 13 -53 13 -131 20 -265 25 -104 3
-224 7 -265 9 -41 1 -136 0 -210 -4z"/>
<path d="M19646 18140 c-32 -71 -67 -243 -65 -320 0 -30 -2 -134 -6 -230 -6
-141 -4 -192 9 -265 9 -49 16 -142 16 -205 0 -63 5 -133 10 -155 5 -22 10
-105 10 -185 4 -309 -12 -550 -45 -675 -9 -33 -25 -127 -35 -210 -20 -156 -88
-451 -113 -488 -8 -12 -20 -47 -26 -77 -11 -51 -41 -153 -92 -310 -12 -36 -39
-103 -61 -150 -22 -47 -76 -163 -119 -259 -43 -96 -85 -181 -93 -190 -9 -9
-29 -48 -46 -86 -37 -84 -164 -337 -192 -382 -27 -45 -96 -256 -108 -330 -17
-104 15 -208 82 -268 84 -77 168 -123 250 -136 117 -19 397 -118 513 -182 109
-60 224 -132 287 -180 18 -14 53 -34 78 -45 25 -11 56 -31 69 -45 13 -15 45
-34 72 -42 26 -9 64 -29 84 -45 41 -33 178 -85 251 -95 27 -4 60 -14 74 -23
21 -13 54 -16 190 -15 180 2 263 16 395 69 78 32 166 111 251 226 25 35 59 71
74 81 64 40 277 129 467 194 51 17 89 39 132 76 33 29 74 63 91 75 52 40 75
104 87 234 6 67 -15 149 -57 223 -16 28 -33 69 -39 92 -7 23 -31 65 -55 93
-24 28 -55 72 -67 98 -13 26 -36 63 -52 84 -15 20 -34 51 -41 70 -25 59 -102
153 -229 281 -114 115 -159 149 -175 132 -3 -3 -2 -12 3 -19 6 -8 40 -56 76
-107 36 -52 91 -129 122 -173 32 -43 60 -90 64 -105 8 -35 50 -119 78 -156 12
-16 59 -102 104 -190 79 -155 82 -163 91 -254 8 -83 7 -100 -9 -136 -35 -80
-102 -118 -342 -198 -91 -30 -181 -63 -199 -72 l-33 -17 7 24 c37 121 40 140
21 154 -12 9 -48 14 -100 14 -69 0 -90 -4 -131 -26 -69 -36 -92 -61 -108 -113
-8 -25 -23 -67 -35 -92 -26 -58 -39 -182 -21 -204 7 -8 22 -15 33 -15 18 0 16
-5 -18 -41 -54 -55 -103 -78 -199 -96 -105 -18 -288 -9 -366 19 -30 10 -90 30
-133 43 -75 23 -125 50 -274 144 -66 43 -72 49 -78 89 -12 77 -69 170 -162
264 -52 51 -92 84 -100 81 -8 -3 -25 -26 -39 -52 -14 -25 -35 -60 -47 -77 -22
-29 -24 -30 -58 -19 -19 7 -57 24 -84 37 -74 38 -192 78 -258 89 -91 15 -270
86 -303 120 -31 32 -33 53 -16 154 10 62 33 126 82 230 16 33 33 75 39 94 6
19 22 48 34 65 13 17 47 83 75 146 29 63 61 129 72 145 12 17 38 67 60 113 21
45 48 95 60 111 26 37 106 226 130 306 20 69 57 160 77 190 7 11 13 34 13 53
0 18 11 54 25 80 14 26 25 61 25 78 0 17 18 91 39 165 63 213 82 300 76 328
-4 17 2 44 14 72 14 30 21 66 21 114 0 39 7 113 15 165 8 52 20 226 26 387 10
258 10 301 -5 380 -9 48 -16 115 -16 148 0 33 -4 76 -10 95 -44 158 -87 764
-68 950 9 93 6 140 -11 140 -4 0 -20 -27 -35 -60z"/>
<path d="M22560 17733 c-143 -22 -373 -133 -499 -241 -213 -183 -374 -373
-411 -485 -16 -51 -2 -69 36 -46 25 15 27 15 73 -30 77 -74 275 -169 534 -255
252 -84 374 -113 532 -126 129 -11 369 4 430 27 22 8 62 21 89 29 27 7 74 30
105 49 31 19 79 46 106 59 56 26 154 124 211 211 34 51 37 53 66 44 17 -5 47
-20 67 -33 51 -35 92 -49 105 -36 35 35 -165 248 -389 416 -125 93 -514 314
-555 314 -8 0 -40 12 -70 26 -110 51 -335 91 -430 77z m-130 -256 c0 -2 -9
-48 -21 -103 -17 -81 -20 -118 -15 -206 7 -113 35 -226 62 -249 9 -7 30 -33
46 -58 25 -36 28 -43 12 -36 -10 4 -44 11 -74 15 -30 5 -111 26 -180 49 -175
57 -274 87 -352 105 -106 26 -123 33 -107 52 7 8 26 22 43 31 17 9 49 32 72
52 138 123 231 196 314 247 138 84 200 115 200 101z m1005 -266 c39 -26 88
-55 109 -64 22 -10 71 -39 109 -63 l69 -45 -21 -23 c-32 -33 -215 -141 -311
-182 -77 -33 -268 -89 -276 -82 -2 2 21 31 50 63 40 45 61 82 87 150 32 84 34
98 34 211 l0 122 40 -21 c22 -11 72 -41 110 -66z m-559 20 c88 -32 95 -43 74
-120 -35 -130 -219 -115 -230 19 -5 57 1 91 20 110 26 26 41 25 136 -9z"/>
<path d="M17376 17655 c-38 -14 -81 -25 -96 -25 -15 0 -57 -16 -93 -35 -36
-19 -72 -35 -79 -35 -19 0 -107 -47 -148 -79 -19 -16 -51 -36 -70 -46 -19 -10
-57 -38 -85 -63 -27 -25 -84 -69 -126 -99 -79 -55 -241 -224 -292 -304 -15
-24 -40 -62 -56 -84 -38 -53 -46 -81 -26 -89 22 -8 81 18 128 56 l38 30 25
-23 c14 -13 43 -47 66 -77 23 -29 55 -60 72 -69 17 -9 49 -30 70 -47 39 -30
99 -58 206 -97 157 -57 414 -85 499 -55 24 9 54 13 66 10 13 -3 48 1 78 10 30
9 69 16 87 16 17 0 52 8 78 19 72 28 186 61 213 61 13 0 42 10 64 21 22 12
103 46 180 76 145 56 204 86 315 159 94 62 130 93 130 114 0 14 7 18 27 17 48
-3 38 27 -31 100 -90 95 -368 295 -561 403 -33 18 -73 43 -90 55 -16 12 -68
34 -115 48 -213 65 -355 74 -474 32z m701 -374 c67 -39 126 -71 130 -71 5 0
38 -17 74 -39 35 -21 82 -44 104 -51 22 -7 58 -26 79 -41 22 -16 46 -29 53
-29 31 0 9 -18 -29 -24 -56 -9 -422 -131 -469 -157 -20 -10 -50 -19 -67 -19
-17 0 -43 -5 -59 -11 -15 -7 -56 -20 -91 -29 l-64 -18 54 48 c99 89 147 233
148 448 0 40 3 71 8 69 4 -2 62 -36 129 -76z m-1024 -112 c4 -116 7 -130 42
-219 21 -53 51 -110 69 -129 29 -31 133 -89 166 -92 8 -1 -7 -5 -35 -9 -70
-11 -213 4 -325 34 -101 27 -343 141 -376 177 -18 20 -17 21 26 59 25 22 79
61 120 87 102 64 176 119 193 143 7 11 35 29 60 40 26 12 47 26 47 32 0 6 2 9
5 7 2 -3 6 -61 8 -130z m547 72 c28 -54 0 -160 -51 -186 -75 -39 -145 -4 -157
80 -11 71 -6 82 41 99 88 32 152 34 167 7z"/>
<path d="M16325 16940 c3 -5 11 -10 16 -10 6 0 7 5 4 10 -3 6 -11 10 -16 10
-6 0 -7 -4 -4 -10z"/>
<path d="M21949 11566 c-7 -8 -218 -32 -395 -46 -66 -5 -141 -16 -165 -26 -24
-9 -109 -31 -189 -49 -164 -37 -293 -75 -330 -95 -14 -8 -50 -17 -80 -21 -30
-3 -81 -12 -113 -18 -102 -21 -332 -4 -457 34 -25 7 -67 18 -95 24 -148 30
-285 63 -353 84 -107 34 -287 54 -677 76 -156 8 -308 3 -435 -15 -25 -4 -76
-7 -115 -9 -71 -2 -165 -33 -165 -54 0 -20 53 -45 99 -47 26 0 96 -8 156 -17
61 -9 202 -21 315 -27 197 -11 422 -34 441 -46 6 -3 42 -9 82 -14 105 -12 339
-58 457 -90 36 -10 83 -21 105 -25 21 -4 55 -15 75 -25 66 -33 288 -63 475
-65 119 -1 123 0 345 63 124 35 232 69 240 77 8 7 51 19 95 25 44 7 143 27
220 45 77 18 205 45 285 60 80 14 165 31 190 36 25 6 92 14 150 19 116 11 193
23 231 39 13 5 40 12 60 15 19 4 44 12 54 20 34 24 -20 47 -137 57 -165 14
-362 22 -369 15z"/>
<path d="M19406 10972 c-9 -15 34 -90 82 -143 137 -153 462 -271 749 -272 174
-1 396 7 409 16 6 3 51 12 100 18 182 23 221 29 289 38 79 11 174 40 231 70
21 12 51 21 67 21 16 0 60 19 100 44 40 24 91 53 114 64 64 33 96 94 57 109
-20 7 -148 -12 -254 -37 -41 -10 -100 -22 -130 -25 -30 -4 -84 -15 -119 -26
-35 -10 -92 -19 -126 -19 -35 0 -76 -5 -92 -12 -15 -6 -55 -15 -88 -19 -33 -4
-109 -15 -170 -24 -252 -38 -734 10 -907 90 -29 14 -64 25 -76 25 -13 0 -36 9
-52 20 -23 16 -155 70 -173 70 -3 0 -8 -4 -11 -8z"/>
<path d="M14360 16194 c-111 -75 -241 -264 -301 -439 -20 -57 -24 -90 -24
-180 1 -182 36 -246 225 -408 210 -180 298 -272 287 -302 -4 -8 -33 -28 -65
-44 -273 -138 -632 -587 -632 -791 0 -83 22 -91 69 -25 107 149 353 410 491
522 42 33 114 82 160 107 102 56 154 105 176 163 46 120 -32 249 -274 455
-214 181 -242 220 -242 344 0 98 29 202 111 393 39 90 71 175 72 189 2 32 -19
38 -53 16z"/>
<path d="M3798 26553 c7 -3 16 -2 19 1 4 3 -2 6 -13 5 -11 0 -14 -3 -6 -6z"/>
<path d="M8091 24618 c-1 -16 4 -28 9 -28 12 0 12 8 0 35 -8 18 -9 17 -9 -7z"/>
</g>
</svg>
